<?xml version="1.0" encoding="utf-8"?>
<!-- Generator: Adobe Illustrator 21.0.2, SVG Export Plug-In . SVG Version: 6.00 Build 0)  -->
<svg version="1.1" id="Ñëîé_1" xmlns="http://www.w3.org/2000/svg" xmlns:xlink="http://www.w3.org/1999/xlink" x="0px" y="0px"
	 viewBox="0 0 159.8 228" style="enable-background:new 0 0 159.8 228;" xml:space="preserve">
<style type="text/css">
	.st0{fill:#E6E6E6;}
	.st1{opacity:0.6;}
	.st2{enable-background:new    ;}
	.st3{fill:#752B1B;}
	.st4{fill:#333333;}
	.st5{fill:url(#SVGID_1_);}
	.st6{fill:#943726;}
	.st7{fill:#AAAAAA;}
	.st8{fill:url(#SVGID_2_);}
	.st9{fill:url(#SVGID_3_);}
	.st10{fill:url(#SVGID_4_);}
	.st11{fill:url(#SVGID_5_);}
	.st12{fill:#CF4A38;}
	.st13{fill:url(#SVGID_6_);}
	.st14{fill:url(#SVGID_7_);}
	.st15{fill:url(#SVGID_8_);}
	.st16{fill:url(#SVGID_9_);}
	.st17{fill:url(#SVGID_10_);}
	.st18{fill:url(#SVGID_11_);}
	.st19{fill:url(#SVGID_12_);}
	.st20{fill:url(#SVGID_13_);}
	.st21{fill:#353533;}
	.st22{fill:#616160;}
</style>
<image style="overflow:visible;enable-background:new    ;" width="675" height="2504" xlink:href="89DA29F6.png"  transform="matrix(0.2379 0 0 0.2386 0.1774 -241.5797)">
</image>
<g>
	<polygon class="st0" points="40,77.7 119,77.7 119,102.6 156.9,64.7 119,26.8 119,51.7 40,51.7 	"/>
	<polygon class="st0" points="115.2,48.9 115.2,22.5 138.8,22.5 77.3,-15.4 15.8,22.5 40.2,22.5 40.2,48.9 	"/>
	<polygon class="st0" points="36.7,80.7 36.7,55.8 0,92.6 0,94.9 36.7,131.6 36.7,106.7 86.1,106.7 86.1,80.7 	"/>
	<polygon class="st0" points="38.8,109.6 38.8,159 13.9,159 51.8,196.9 89.7,159 64.8,159 64.8,109.7 	"/>
	<polygon class="st0" points="7.7,27.1 7.7,2.2 0,9.9 0,70.3 7.7,78 7.7,53.1 36.9,53.1 36.9,27.1 	"/>
</g>
<g>
	<polygon class="st0" points="160,-83.2 94.7,-83.2 94.7,-108.1 56.8,-70.2 94.7,-32.3 94.7,-57.2 160,-57.2 	"/>
	<polygon class="st0" points="160,-54.4 98.5,-54.4 98.5,-28 74.9,-28 136.4,9.9 160,-4.6 	"/>
	<polygon class="st0" points="160,-112.2 127.7,-112.2 127.6,-86.2 160,-86.2 	"/>
	<polygon class="st0" points="160,-115.1 160,-200.5 124,-164.5 148.9,-164.5 148.9,-115.1 	"/>
</g>
<g>
	<polygon class="st0" points="44.6,-184.3 111.5,-184.3 111.5,-163.2 143.6,-195.3 111.5,-227.4 111.5,-206.3 44.6,-206.3 	"/>
	<polygon class="st0" points="42.3,-242.2 24.1,-231 44.7,-231 44.7,-208.7 108.3,-208.7 108.3,-231 128.2,-231 110,-242.2 	"/>
	<polygon class="st0" points="83.6,-181.7 41.8,-181.7 41.8,-202.8 9.7,-170.7 41.8,-138.6 41.8,-159.7 83.6,-159.7 	"/>
	<polygon class="st0" points="43.6,-157.3 43.6,-115.5 22.5,-115.5 54.6,-83.4 86.7,-115.5 65.6,-115.5 65.6,-157.3 	"/>
	<polygon class="st0" points="17.3,-227.1 17.3,-242.2 11.3,-242.2 0,-231 0,-201.3 17.2,-184 17.2,-205.1 41.9,-205.1 42,-227.1 	
		"/>
</g>
<g class="st1">
	<g class="st2">
		<g>
			<polygon class="st3" points="102.3,-241.9 92.7,-137.7 105.3,-128.6 113.4,-241.9 			"/>
		</g>
		<g>
			<polygon class="st4" points="107.5,-241.9 98.9,-137.2 123.3,-143 127.8,-241.9 			"/>
		</g>
		<g>
			<polygon class="st3" points="159.8,-241.9 150.3,-241.9 150.1,-149.3 159.8,-151.6 			"/>
		</g>
		<g>
			<polygon class="st3" points="82.4,-241.9 74.3,-178.6 118.5,-143.9 123.7,-241.9 			"/>
		</g>
		<g>
			<polygon class="st3" points="110.1,-241.9 105.9,-187.6 150.1,-149.3 150.3,-241.9 			"/>
		</g>
		<g>
			<polygon class="st3" points="159.8,-241.9 138.6,-241.9 136.7,-163.3 159.8,-169.1 			"/>
		</g>
		<g>
			<polygon class="st3" points="59,-241.9 46.7,-170.8 74.3,-178.6 82.4,-241.9 			"/>
		</g>
		<g>
			<polygon class="st3" points="41.5,-241.9 29.5,-183.2 46.7,-170.8 59,-241.9 			"/>
		</g>
		<g>
			
				<radialGradient id="SVGID_1_" cx="214.8401" cy="1051.8218" r="191.3867" gradientTransform="matrix(1 0 0 -1 -137.9941 876.3906)" gradientUnits="userSpaceOnUse">
				<stop  offset="0" style="stop-color:#FDD294"/>
				<stop  offset="1" style="stop-color:#E6223B"/>
			</radialGradient>
			<polygon class="st5" points="105.3,-128.6 92.7,-137.7 118.5,-143.9 74.3,-178.6 46.7,-170.8 29.5,-183.2 34.6,-144.3 			"/>
		</g>
		<g>
			<polygon class="st3" points="159.8,-241.9 139.1,-241.9 138,-199.1 159.8,-177.9 			"/>
		</g>
		<g>
			<polygon class="st6" points="159.8,-241.9 157.2,-241.9 157.8,-184.4 159.8,-184.2 			"/>
		</g>
		<g>
			<polygon class="st7" points="156.9,-241.9 157.4,-184.5 157.8,-184.4 157.2,-241.9 			"/>
		</g>
		<g>
			<polygon class="st7" points="156.3,-241.9 156.8,-184.6 157.4,-184.5 156.9,-241.9 			"/>
		</g>
		<g>
			
				<radialGradient id="SVGID_2_" cx="214.8383" cy="1051.8231" r="191.3861" gradientTransform="matrix(1 0 0 -1 -137.9941 876.3906)" gradientUnits="userSpaceOnUse">
				<stop  offset="0" style="stop-color:#FDD294"/>
				<stop  offset="1" style="stop-color:#E6223B"/>
			</radialGradient>
			<polygon class="st8" points="159.8,-169.1 136.7,-163.3 150.2,-151.5 159.8,-153.8 			"/>
			
				<radialGradient id="SVGID_3_" cx="214.8386" cy="1051.8229" r="191.3855" gradientTransform="matrix(1 0 0 -1 -137.9941 876.3906)" gradientUnits="userSpaceOnUse">
				<stop  offset="0" style="stop-color:#FDD294"/>
				<stop  offset="1" style="stop-color:#E6223B"/>
			</radialGradient>
			<polygon class="st9" points="159.8,-184.2 157.8,-184.4 157.4,-184.5 156.8,-184.6 159.8,-181.6 			"/>
		</g>
		<g>
			
				<radialGradient id="SVGID_4_" cx="214.8407" cy="1051.8223" r="191.3812" gradientTransform="matrix(1 0 0 -1 -137.9941 876.3906)" gradientUnits="userSpaceOnUse">
				<stop  offset="0" style="stop-color:#FDD294"/>
				<stop  offset="1" style="stop-color:#E6223B"/>
			</radialGradient>
			<polygon class="st10" points="159.8,-151.6 150.1,-149.3 105.9,-187.6 77.2,-179.5 123.3,-143 98.9,-137.2 154.9,-130.9 
				159.8,-136.5 			"/>
		</g>
		<g>
			<polygon class="st3" points="84.9,-241.9 77.2,-179.5 105.9,-187.6 110.1,-241.9 			"/>
		</g>
		<g>
			<polygon class="st3" points="63.8,-241.9 56.5,-197.6 76.6,-181.6 84.2,-241.9 			"/>
		</g>
		<g>
			<polygon class="st6" points="86.7,-241.9 79.5,-182.5 97.7,-217.6 100,-241.9 			"/>
		</g>
		<g>
			
				<radialGradient id="SVGID_5_" cx="214.8406" cy="1051.822" r="191.3856" gradientTransform="matrix(1 0 0 -1 -137.9941 876.3906)" gradientUnits="userSpaceOnUse">
				<stop  offset="0" style="stop-color:#FDD294"/>
				<stop  offset="1" style="stop-color:#E6223B"/>
			</radialGradient>
			<polygon class="st11" points="49.2,-173.8 76.6,-181.6 56.5,-197.6 85,-206.3 12.7,-215.8 2.8,-181.2 28.4,-189 			"/>
		</g>
		<g>
			<polygon class="st12" points="19.1,-241.9 12.7,-215.8 85,-206.3 89.2,-241.9 			"/>
		</g>
		<g>
			<polygon class="st3" points="17.9,-241.9 2.8,-181.2 12.7,-215.8 19.1,-241.9 			"/>
		</g>
		<g>
			<polygon class="st6" points="159.8,-241.9 143.5,-241.9 142.8,-198.9 159.8,-203.7 			"/>
		</g>
		<g>
			
				<radialGradient id="SVGID_6_" cx="214.8408" cy="1051.8223" r="191.3818" gradientTransform="matrix(1 0 0 -1 -137.9941 876.3906)" gradientUnits="userSpaceOnUse">
				<stop  offset="0" style="stop-color:#FDD294"/>
				<stop  offset="1" style="stop-color:#E6223B"/>
			</radialGradient>
			<polygon class="st13" points="159.8,-177.9 138,-199.1 159.8,-205.3 159.8,-209.2 97.7,-217.6 79.5,-182.5 107.4,-190.4 
				136.2,-165 159.8,-171.1 			"/>
		</g>
		<g>
			<polygon class="st12" points="159.8,-241.9 100,-241.9 97.7,-217.6 159.8,-209.2 			"/>
		</g>
		<g>
			
				<radialGradient id="SVGID_7_" cx="214.838" cy="1051.8232" r="191.3852" gradientTransform="matrix(1 0 0 -1 -137.9941 876.3906)" gradientUnits="userSpaceOnUse">
				<stop  offset="0" style="stop-color:#FDD294"/>
				<stop  offset="1" style="stop-color:#E6223B"/>
			</radialGradient>
			<polygon class="st14" points="159.8,-203.7 142.8,-198.9 157.4,-184.5 157.8,-184.4 159.8,-185 			"/>
		</g>
	</g>
</g>
<g>
	<g class="st2">
		<g>
			<polygon class="st3" points="110.9,56 100.9,261.2 106.6,272 119.6,65.2 			"/>
		</g>
		<g>
			<polygon class="st4" points="98.4,70.6 92,278.6 103.7,271.4 115.3,64.7 			"/>
		</g>
		<g>
			<polygon class="st3" points="61.3,83.5 67.1,293.9 79.5,286.2 79.9,77 			"/>
		</g>
		<g>
			<polygon class="st3" points="101.7,71.5 94.3,279.6 113.8,318.1 132.3,106.8 			"/>
		</g>
		<g>
			<polygon class="st3" points="79.9,77 79.5,286.2 99.2,328.2 110.4,115.9 			"/>
		</g>
		<g>
			<polygon class="st3" points="66.2,99.7 70.5,311.6 85.6,302 89.1,91.2 			"/>
		</g>
		<g>
			<polygon class="st3" points="132.3,106.8 113.8,318.1 126.7,309.2 151.4,98.8 			"/>
		</g>
		<g>
			<polygon class="st3" points="159.8,107.8 151.4,98.8 126.7,309.2 133.8,322.5 159.8,136.3 			"/>
		</g>
		<g>
			
				<radialGradient id="SVGID_8_" cx="1574.2499" cy="-30.8238" r="191.3998" gradientTransform="matrix(-0.692 0 0 1.0151 1219.9414 134.8201)" gradientUnits="userSpaceOnUse">
				<stop  offset="0" style="stop-color:#FDD294"/>
				<stop  offset="1" style="stop-color:#E6223B"/>
			</radialGradient>
			<polygon class="st15" points="159.8,72.2 159.8,71.9 110.9,56 119.6,65.2 101.7,71.5 132.3,106.8 151.4,98.8 159.8,107.8 			"/>
		</g>
		<g>
			<polygon class="st3" points="69.3,100.5 72.5,312.4 84.8,340.6 88.2,127.6 			"/>
		</g>
		<g>
			<polygon class="st6" points="30.7,104.4 47.4,317.3 76,325.3 74.5,112.6 			"/>
		</g>
		<g>
			<polygon class="st7" points="74.5,112.6 76,325.3 76.1,325.3 74.8,112.7 			"/>
		</g>
		<g>
			<polygon class="st7" points="74.8,112.7 76.1,325.3 76.4,325.4 75.2,112.8 			"/>
		</g>
		<g>
			
				<radialGradient id="SVGID_9_" cx="1574.2463" cy="-30.8207" r="191.4007" gradientTransform="matrix(-0.692 0 0 1.0151 1219.9414 134.8196)" gradientUnits="userSpaceOnUse">
				<stop  offset="0" style="stop-color:#FDD294"/>
				<stop  offset="1" style="stop-color:#E6223B"/>
			</radialGradient>
			<polygon class="st16" points="49.6,75.8 30.7,104.4 74.5,112.6 74.8,112.7 75.2,112.8 66.2,99.7 89.1,91.2 79.8,79.2 57.4,87 			
				"/>
		</g>
		<g>
			
				<radialGradient id="SVGID_10_" cx="1574.2507" cy="-30.8226" r="191.3924" gradientTransform="matrix(-0.692 0 0 1.0151 1219.9414 134.8196)" gradientUnits="userSpaceOnUse">
				<stop  offset="0" style="stop-color:#FDD294"/>
				<stop  offset="1" style="stop-color:#E6223B"/>
			</radialGradient>
			<polygon class="st17" points="76.5,58.3 61.3,83.5 79.9,77 110.4,115.9 130.3,107.7 98.4,70.6 115.3,64.7 			"/>
		</g>
		<g>
			<polygon class="st3" points="110.4,115.9 99.2,328.2 112.4,319 130.3,107.7 			"/>
		</g>
		<g>
			<polygon class="st3" points="130.7,109.7 112.6,321.3 121,338.1 144.6,126 			"/>
		</g>
		<g>
			<polygon class="st6" points="102.9,355.8 111.3,322.3 128.7,110.7 116.1,146.3 102.4,355.8 			"/>
		</g>
		<g>
			
				<radialGradient id="SVGID_11_" cx="1574.2499" cy="-30.8237" r="191.4003" gradientTransform="matrix(-0.692 0 0 1.0151 1219.9414 134.8201)" gradientUnits="userSpaceOnUse">
				<stop  offset="0" style="stop-color:#FDD294"/>
				<stop  offset="1" style="stop-color:#E6223B"/>
			</radialGradient>
			<polygon class="st18" points="159.8,141.6 159.8,112.7 149.7,101.9 130.7,109.7 144.6,126 124.9,134.8 			"/>
		</g>
		<g>
			<polygon class="st12" points="159.8,141.6 124.9,134.8 108,347.3 138.1,355.8 139.4,355.8 159.8,234.6 			"/>
		</g>
		<g>
			<polygon class="st3" points="159.8,234.6 139.4,355.8 139.5,355.8 146.1,320 159.8,238.8 			"/>
		</g>
		<g>
			<polygon class="st6" points="60,355.8 82.7,340.4 84.9,127.4 40.9,145.5 54.8,355.8 			"/>
		</g>
		<g>
			
				<radialGradient id="SVGID_12_" cx="1574.2506" cy="-30.8217" r="191.3943" gradientTransform="matrix(-0.692 0 0 1.0151 1219.9414 134.8196)" gradientUnits="userSpaceOnUse">
				<stop  offset="0" style="stop-color:#FDD294"/>
				<stop  offset="1" style="stop-color:#E6223B"/>
			</radialGradient>
			<polygon class="st19" points="89.5,93 69.3,100.5 88.2,127.6 66.7,136.5 116.1,146.3 128.7,110.7 109.4,118.8 			"/>
		</g>
		<g>
			<polygon class="st12" points="91.6,355.8 102.4,355.8 116.1,146.3 66.7,136.5 71.1,349.9 			"/>
		</g>
		<g>
			<polygon class="st12" points="60.1,355.8 50.2,162.6 -0.2,151.9 28.2,355.8 			"/>
		</g>
		<g>
			
				<radialGradient id="SVGID_13_" cx="1574.2468" cy="-30.8207" r="191.3982" gradientTransform="matrix(-0.692 0 0 1.0151 1219.9414 134.8196)" gradientUnits="userSpaceOnUse">
				<stop  offset="0" style="stop-color:#FDD294"/>
				<stop  offset="1" style="stop-color:#E6223B"/>
			</radialGradient>
			<polygon class="st20" points="24.2,114.8 -0.2,151.9 50.2,162.6 40.9,145.5 84.9,127.4 74.8,112.7 74.5,112.6 32.1,129.3 			"/>
		</g>
	</g>
</g>
<g>
	<polygon class="st0" points="117.4,293 38.4,293 38.4,268.5 0.4,305.8 38.3,343.2 38.3,318.7 117.4,318.7 	"/>
	<polygon class="st0" points="127.8,355.8 141.6,347.6 117.2,347.6 117.2,321.5 42.1,321.4 42.1,347.5 18.6,347.5 32.4,355.8 	"/>
	<polygon class="st0" points="71.3,290.1 120.7,290.1 120.7,314.6 158.6,277.3 120.7,239.9 120.7,264.4 71.3,264.4 	"/>
	<polygon class="st0" points="118.6,261.6 118.6,213 143.5,213 105.6,175.5 67.7,212.9 92.6,212.9 92.6,261.6 	"/>
	<polygon class="st0" points="149.7,355.8 160.3,355.8 160.3,303.2 149.7,292.7 149.7,317.3 120.5,317.3 120.5,342.9 149.7,342.9 	
		"/>
</g>
<g class="st2">
	<path class="st21" d="M30.3,39.6c0,1.6-1,2.7-2.5,2.7c-0.8,0-1.4-0.3-1.8-0.9v2.8h-1.3V37H26v0.9c0.4-0.6,1-0.9,1.8-0.9
		C29.3,36.9,30.3,38,30.3,39.6z M29,39.6c0-0.9-0.6-1.6-1.5-1.6S26,38.7,26,39.6c0,0.9,0.6,1.6,1.5,1.6C28.4,41.1,29,40.5,29,39.6z"
		/>
	<path class="st21" d="M34.5,42.2v-0.6c-0.4,0.5-1,0.7-1.7,0.7c-1.1,0-1.8-0.7-1.8-1.6c0-1,0.7-1.6,2-1.6h1.5V39c0-0.6-0.4-1-1.2-1
		c-0.5,0-1,0.2-1.6,0.5l-0.4-1c0.8-0.4,1.3-0.6,2.3-0.6c1.4,0,2.2,0.7,2.2,1.9v3.4C35.8,42.2,34.5,42.2,34.5,42.2z M34.5,40.4v-0.5
		h-1.3c-0.7,0-1,0.2-1,0.6c0,0.4,0.4,0.7,0.9,0.7C33.9,41.3,34.4,40.9,34.5,40.4z"/>
	<path class="st21" d="M40.3,36.9v1.2c-1.1-0.1-1.8,0.6-1.8,1.5v2.5h-1.3v-5.3h1.3v1C38.8,37.3,39.5,36.9,40.3,36.9z"/>
	<path class="st21" d="M44.1,42.2v-0.6c-0.4,0.5-1,0.7-1.7,0.7c-1.1,0-1.8-0.7-1.8-1.6c0-1,0.7-1.6,2-1.6h1.5V39c0-0.6-0.4-1-1.2-1
		c-0.5,0-1,0.2-1.6,0.5l-0.4-1c0.8-0.4,1.3-0.6,2.3-0.6c1.4,0,2.2,0.7,2.2,1.9v3.4C45.4,42.2,44.1,42.2,44.1,42.2z M44.1,40.4v-0.5
		h-1.3c-0.7,0-1,0.2-1,0.6c0,0.4,0.4,0.7,0.9,0.7C43.4,41.3,44,40.9,44.1,40.4z"/>
	<path class="st21" d="M57.8,38.9v3.3h-1.3v-2.9c0-0.7-0.4-1.2-1.2-1.2c-0.9,0-1.4,0.6-1.4,1.5v2.6h-1.3v-5.3H54v1
		c0.4-0.7,1-1,1.9-1C57.1,36.9,57.8,37.7,57.8,38.9z"/>
	<path class="st21" d="M64.1,36.9v5.3h-1.3v-1c-0.4,0.7-1,1-1.8,1c-1.2,0-1.9-0.8-1.9-2v-3.3h1.3v2.9c0,0.7,0.4,1.2,1.1,1.2
		c0.8,0,1.3-0.7,1.3-1.5v-2.6C62.8,36.9,64.1,36.9,64.1,36.9z"/>
	<path class="st21" d="M70.4,40h-3.9c0.2,0.7,0.7,1.2,1.5,1.2c0.5,0,1-0.2,1.4-0.6l0.7,0.7c-0.5,0.6-1.3,0.9-2.2,0.9
		c-1.6,0-2.7-1.1-2.7-2.7c0-1.6,1.1-2.7,2.7-2.7C69.7,36.9,70.5,38.1,70.4,40z M69.2,39.2c0-0.8-0.6-1.3-1.3-1.3
		c-0.8,0-1.3,0.5-1.4,1.3H69.2z"/>
	<path class="st21" d="M71.8,36.9l1.4,4l1.3-4h1.3l-2,5.3h-1.3l-2-5.2L71.8,36.9z"/>
	<path class="st21" d="M81.4,39.6c0,1.6-1.1,2.7-2.8,2.7c-1.7,0-2.8-1.1-2.8-2.7c0-1.6,1.1-2.7,2.8-2.7C80.3,36.9,81.4,38,81.4,39.6
		z M77.2,39.6c0,0.9,0.6,1.6,1.5,1.6s1.5-0.6,1.5-1.6S79.6,38,78.7,38C77.8,38,77.2,38.6,77.2,39.6z"/>
	<path class="st21" d="M84.1,37.9c-0.4,0-0.7,0.1-0.7,0.5c0,0.9,2.8,0.4,2.8,2.3c0,1.1-1,1.6-2.1,1.6c-0.8,0-1.6-0.3-2.2-0.7
		l0.4-0.9c0.5,0.4,1.2,0.6,1.8,0.6c0.4,0,0.8-0.1,0.8-0.5c0-1-2.7-0.4-2.7-2.3c0-1.1,0.9-1.6,2-1.6c0.7,0,1.4,0.2,1.9,0.6l-0.5,0.9
		C85.2,38.1,84.6,37.9,84.1,37.9z"/>
	<path class="st21" d="M91.6,35.4c0,0.4-0.3,0.7-0.7,0.7c-0.4,0-0.7-0.3-0.7-0.7s0.3-0.7,0.7-0.7C91.3,34.7,91.6,35,91.6,35.4z
		 M91.5,36.9v5.3h-1.3v-5.3H91.5z"/>
	<path class="st21" d="M98.2,38.9v3.3h-1.3v-2.9c0-0.7-0.4-1.2-1.2-1.2c-0.9,0-1.4,0.6-1.4,1.5v2.6H93v-5.3h1.3v1c0.4-0.7,1-1,1.9-1
		C97.5,36.9,98.2,37.7,98.2,38.9z"/>
	<path class="st21" d="M100,36.9l1.4,4l1.3-4h1.3l-2,5.3h-1.3l-2-5.2L100,36.9z"/>
	<path class="st21" d="M109.3,40h-3.9c0.2,0.7,0.7,1.2,1.5,1.2c0.5,0,1-0.2,1.4-0.6l0.7,0.7c-0.5,0.6-1.3,0.9-2.2,0.9
		c-1.6,0-2.7-1.1-2.7-2.7c0-1.6,1.1-2.7,2.7-2.7C108.6,36.9,109.4,38.1,109.3,40z M108.1,39.2c0-0.8-0.5-1.3-1.3-1.3
		s-1.3,0.5-1.4,1.3H108.1z"/>
	<path class="st21" d="M112,37.9c-0.4,0-0.7,0.1-0.7,0.5c0,0.9,2.8,0.4,2.8,2.3c0,1.1-1,1.6-2.1,1.6c-0.8,0-1.6-0.3-2.2-0.7l0.4-0.9
		c0.5,0.4,1.2,0.6,1.8,0.6c0.4,0,0.8-0.1,0.8-0.5c0-1-2.7-0.4-2.7-2.3c0-1.1,0.9-1.6,2-1.6c0.7,0,1.4,0.2,1.9,0.6l-0.5,0.9
		C113,38.1,112.4,37.9,112,37.9z"/>
	<path class="st21" d="M120.2,39.6c0,1.6-1.1,2.7-2.8,2.7c-1.7,0-2.8-1.1-2.8-2.7c0-1.6,1.1-2.7,2.8-2.7
		C119.1,36.9,120.2,38,120.2,39.6z M116,39.6c0,0.9,0.6,1.6,1.5,1.6s1.5-0.6,1.5-1.6s-0.6-1.6-1.5-1.6S116,38.6,116,39.6z"/>
	<path class="st21" d="M124.4,36.9v1.2c-1.1-0.1-1.8,0.6-1.8,1.5v2.5h-1.3v-5.3h1.3v1C122.9,37.3,123.6,36.9,124.4,36.9z"/>
	<path class="st21" d="M130,40h-3.9c0.2,0.7,0.7,1.2,1.5,1.2c0.5,0,1-0.2,1.4-0.6l0.7,0.7c-0.5,0.6-1.3,0.9-2.2,0.9
		c-1.6,0-2.7-1.1-2.7-2.7c0-1.6,1.1-2.7,2.7-2.7C129.3,36.9,130.1,38.1,130,40z M128.8,39.2c0-0.8-0.6-1.3-1.3-1.3
		c-0.8,0-1.3,0.5-1.4,1.3H128.8z"/>
	<path class="st21" d="M132.7,37.9c-0.4,0-0.7,0.1-0.7,0.5c0,0.9,2.8,0.4,2.8,2.3c0,1.1-1,1.6-2.1,1.6c-0.8,0-1.6-0.3-2.2-0.7
		l0.4-0.9c0.5,0.4,1.2,0.6,1.8,0.6c0.4,0,0.8-0.1,0.8-0.5c0-1-2.7-0.4-2.7-2.3c0-1.1,0.9-1.6,2-1.6c0.7,0,1.4,0.2,1.9,0.6l-0.5,0.9
		C133.7,38.1,133.1,37.9,132.7,37.9z"/>
</g>
<g class="st2">
	<path class="st12" d="M28.6,16.6c0,0.9-0.6,1.5-1.5,1.5s-1.5-0.6-1.5-1.5s0.6-1.5,1.5-1.5S28.6,15.7,28.6,16.6z M28.5,19.9v11.5
		h-2.8V19.9H28.5z"/>
	<path class="st12" d="M43.1,24.2v7.2h-2.8V25c0-1.6-1-2.6-2.6-2.6c-1.9,0-3,1.4-3,3.3v5.7h-2.8V19.9h2.8V22
		c0.8-1.5,2.3-2.2,4.1-2.3C41.5,19.8,43.1,21.5,43.1,24.2z"/>
</g>
<g class="st2">
	<path class="st12" d="M62.1,24.3c0,4.4-2.6,7.3-6.6,7.3c-1.8,0-3.3-0.7-4.3-2v1.9h-4.7V11.7h4.7v7.2c1-1.3,2.4-2,4.2-2
		C59.5,16.9,62.1,19.8,62.1,24.3z M57.4,24.2c0-2.1-1.3-3.6-3.1-3.6s-3.1,1.5-3.1,3.6s1.3,3.6,3.1,3.6
		C56.1,27.7,57.4,26.3,57.4,24.2z"/>
	<path class="st12" d="M78.2,25.5h-10c0.5,1.6,1.6,2.5,3.3,2.5c1.2,0,2.4-0.5,3.4-1.5l2.5,2.5c-1.5,1.6-3.6,2.6-6.3,2.6
		c-4.7,0-7.6-2.9-7.6-7.3c0-4.5,3-7.4,7.5-7.4C75.9,16.9,78.5,20.2,78.2,25.5z M73.6,23c0-1.6-1.1-2.8-2.7-2.8
		c-1.5,0-2.6,1.1-2.9,2.8H73.6z"/>
	<path class="st12" d="M85.6,20.1c-0.8,0-1.4,0.3-1.4,0.9c0,1.9,7.6,1,7.5,6c0,3-2.6,4.6-6.1,4.6c-2.4,0-4.7-0.7-6.5-2l1.5-3.1
		c1.6,1.1,3.5,1.8,5.1,1.8c0.9,0,1.5-0.3,1.5-0.9c0-2-7.4-1-7.4-6c0-3,2.5-4.7,5.9-4.7c2.1,0,4.2,0.6,6,1.7l-1.6,3.1
		C88.4,20.6,86.8,20.1,85.6,20.1z"/>
	<path class="st12" d="M103.7,30.7c-1,0.6-2.5,1-3.9,1c-2.8,0-4.8-1.6-4.8-4.6v-6.2h-2v-3.1h2v-4h4.7v4h3.7v3.1h-3.7v5.4
		c0,1.1,0.5,1.5,1.3,1.5c0.5,0,1.1-0.2,1.8-0.5L103.7,30.7z"/>
</g>
<g class="st2">
	<path class="st12" d="M116.2,26.6h-8.5c0.4,1.6,1.6,2.6,3.3,2.6c1.2,0,2.3-0.5,3.1-1.3l1.5,1.6c-1.1,1.2-2.8,2-4.8,2
		c-3.6,0-5.9-2.4-5.9-5.8c0-3.5,2.4-5.9,5.8-5.9C114.7,19.8,116.5,22.5,116.2,26.6z M113.6,24.8c-0.1-1.7-1.2-2.8-2.9-2.8
		c-1.7,0-2.8,1.1-3.1,2.8H113.6z"/>
	<path class="st12" d="M125.3,19.8v2.7c-2.4-0.2-3.9,1.3-3.9,3.4v5.5h-2.8V19.9h2.8v2.2C122.2,20.6,123.5,19.8,125.3,19.8z"/>
	<path class="st12" d="M130.7,22c-0.9,0-1.5,0.3-1.5,1c0,1.9,6.1,0.9,6.1,5.1c0,2.3-2.1,3.5-4.5,3.5c-1.7,0-3.5-0.6-4.8-1.6l1-2
		c1.1,0.9,2.6,1.4,3.9,1.4c1,0,1.7-0.3,1.7-1.1c0-2.1-6-1-6-5.1c0-2.4,2-3.5,4.3-3.5c1.5,0,3.1,0.5,4.2,1.2l-1,2
		C133,22.4,131.7,22,130.7,22z"/>
</g>
<rect x="-79.6" y="-335.5" class="st22" width="317" height="328"/>
</svg>
