<?xml version="1.0" encoding="utf-8"?>
<!-- Generator: Adobe Illustrator 21.0.2, SVG Export Plug-In . SVG Version: 6.00 Build 0)  -->
<svg version="1.1" id="Capa_1" xmlns="http://www.w3.org/2000/svg" xmlns:xlink="http://www.w3.org/1999/xlink" x="0px" y="0px"
	 viewBox="0 0 200 200" style="enable-background:new 0 0 200 200;" xml:space="preserve">
<style type="text/css">
	.st0{fill:#FFFFFF;}
</style>
<g>
	<g>
		<path class="st0" d="M150,101.3c-1.4-2,1.4-2.7,1.4-2.7l-1.4-2c0,0-7.5,1.4-15.7,7.5c-8.2,6.1-17-9.5-17-9.5h-1.4
			c0,0,3.4-1.4,2-21.8c-0.1-0.9-0.1-1.7-0.2-2.5l0,0c0,0,0,0,0,0c-1.5-18.3-4.6-22.7-4.6-22.7s-0.1,0-0.2,0.1c0,0-0.1,0-0.2,0.1
			c-0.1,0.1-0.3,0.1-0.6,0.2c-0.1,0-0.2,0.1-0.4,0.1c-0.2,0.1-0.5,0.2-0.8,0.3c-0.2,0.1-0.3,0.1-0.5,0.2c-0.3,0.1-0.7,0.3-1.1,0.4
			c-0.2,0.1-0.3,0.1-0.5,0.2c-0.6,0.2-1.2,0.5-1.9,0.7c-0.1,0-0.3,0.1-0.4,0.2c-0.6,0.2-1.1,0.4-1.7,0.6c-0.3,0.1-0.5,0.2-0.8,0.3
			c-0.5,0.2-1.1,0.3-1.6,0.5c-0.3,0.1-0.6,0.2-0.9,0.3c-0.6,0.2-1.2,0.3-1.8,0.5c-0.3,0.1-0.6,0.2-0.9,0.3c-0.8,0.2-1.6,0.4-2.4,0.6
			c-0.1,0-0.2,0.1-0.3,0.1c-0.9,0.2-1.9,0.4-2.8,0.6c-0.3,0.1-0.6,0.1-0.8,0.2c-0.7,0.1-1.4,0.2-2,0.3c-0.3,0.1-0.7,0.1-1,0.1
			c-0.6,0.1-1.3,0.2-1.9,0.2c-0.3,0-0.7,0.1-1,0.1c-0.7,0.1-1.3,0.1-2,0.1c-0.3,0-0.5,0-0.8,0c-0.2,0-0.4,0-0.6,0
			c-1.1,0-2.1-0.1-3.1-0.2c-0.3,0-0.6-0.1-0.9-0.1c-1.1-0.2-2.2-0.4-3.2-0.8c0,0,0,0.1,0,0.3c0,0,0,0.1,0,0.1c0,0.5-0.1,1.3-0.1,2.5
			c0,0,0,0,0,0c0,0.6-0.1,1.2-0.1,2c0,0,0,0.1,0,0.1c0,0.7-0.1,1.4-0.1,2.2c0,0.1,0,0.2,0,0.3c0,0.8-0.1,1.6-0.1,2.4
			c0,0.1,0,0.2,0,0.3c0,0.9-0.1,1.8-0.1,2.7c0,0.1,0,0.1,0,0.2c0,1,0,2-0.1,3c0,0,0,0,0,0l0,0c-0.1,6.7-0.1,13.8,0.6,17.1
			c1.4,7.5,2.7,8.2,2.7,8.2l-2,0.7c0,0-8.2,12.9-15,8.9s-12.9-8.2-16.3-8.2l-2,2c0,0,2,1.4,1.4,2.7c-0.7,1.4-6.8,4.1-10.9,4.1
			l2.7,7.5c0,0,9.5,0.7,15.7-3.4c0,0,17,9.5,24.5-5.4l0.7,18.4c0,0,0,6.1,4.8,7.5l1.4,1.4c0,0-2,22.5-1.4,38.1c0,0-7.5-0.7-7.5,5.4
			h15.7c0,0-0.7-4.8-2-5.4c0,0-2-34-2-38.8c0,0,11.6,0.7,21.8,0c0,0,0.7,30-0.7,38.8c0,0-2.7,2.7-2,5.4h15c0,0-0.7-4.8-6.1-5.4
			c0,0-1.4-35.4-2-38.8c0,0,4.8-1.4,5.4-6.1c0.7-4.8,0-21.1,0-21.1s6.8,15.7,25.2,6.1c0,0,7.5,4.1,15.7,4.1l3.4-8.2
			C161.5,105.3,151.3,103.3,150,101.3z"/>
		<path class="st0" d="M74.3,69.9c0.1-8.1,0.5-15.8,0.6-16.3l0.1-1.3l1.2,0.5c1.9,0.8,4.4,1.1,7.3,1.1c12.5,0,29.3-7.2,29.4-7.3
			l0.7-0.3l0.4,0.6c0.1,0.2,3.2,4.7,4.7,22.5c10.1-8.2,5.6-27.1,4-33.2c-1.6-6.3-4.7-9.4-15.7-11S74.8,30,71.6,31.5
			c-3.1,1.6-7.1,7.1-6.3,22C66,66.3,72.4,69.3,74.3,69.9z"/>
	</g>
	<g>
		<g>
			<path class="st0" d="M35.5,66.2c-1-2.1-0.1-4.2,1.9-5.2c2-0.9,4.1-0.1,5.1,2c0.9,2.1,0.2,4.2-1.9,5.1
				C38.5,69,36.4,68.2,35.5,66.2z M50.4,90.2c-5.5,2.5-10,1.5-12.1-3.1c-2.8-6.2,3.1-9.9,0.9-14.6l5.4-2.5c2.9,6.3-2,8.9-0.2,12.9
				c0.8,1.7,2.2,2,4,1.2c2-0.9,2.5-2.6,1.4-5l5.6-2.6C58.1,82.4,56.2,87.5,50.4,90.2z"/>
		</g>
		<g>
			<path class="st0" d="M154.5,81.8c-0.8,2.1-2.9,3.1-5,2.3c-2.1-0.8-3-2.8-2.2-5c0.8-2.1,2.8-3.1,4.9-2.3
				C154.4,77.6,155.4,79.6,154.5,81.8z M161,54.3c5.6,2.1,8.1,6.1,6.4,10.8c-2.4,6.3-9.2,4.8-11,9.7l-5.6-2.1c2.4-6.5,7.7-4.9,9.2-9
				c0.7-1.8-0.1-3-2-3.7c-2.1-0.8-3.6,0-4.6,2.5l-5.8-2.2C150,54.2,155,52,161,54.3z"/>
		</g>
	</g>
</g>
</svg>
